<svg width="264" height="413" viewBox="0 0 264 413" fill="none" xmlns="http://www.w3.org/2000/svg">
<g filter="url(#filter0_b_0_597)">
<rect y="0.229248" width="264" height="412" fill="#1F1F1F" fill-opacity="0.3"/>
</g>
<circle cx="132" cy="206.229" r="27" fill="white"/>
<path d="M140.243 198.986C142.505 201.254 142.583 204.866 140.479 207.222L131.999 215.714L123.521 207.222C121.417 204.866 121.496 201.248 123.757 198.986C125.515 197.229 128.093 196.789 130.261 197.669L126.343 201.587L127.757 203.002L132 198.759L131.987 198.745L132.001 198.758C134.35 196.649 137.98 196.719 140.243 198.986Z" fill="#770015"/>
<circle cx="202" cy="206.229" r="27" fill="white"/>
<path d="M203.576 211.5L198.466 208.713C197.975 209.2 197.352 209.531 196.674 209.664C195.995 209.797 195.293 209.726 194.655 209.46C194.017 209.195 193.472 208.746 193.088 208.171C192.705 207.596 192.5 206.92 192.5 206.229C192.5 205.538 192.705 204.862 193.088 204.287C193.472 203.712 194.017 203.264 194.655 202.998C195.293 202.732 195.995 202.662 196.674 202.794C197.352 202.927 197.975 203.258 198.466 203.745L203.576 200.958C203.401 200.136 203.527 199.278 203.933 198.541C204.338 197.805 204.995 197.239 205.783 196.947C206.571 196.654 207.439 196.656 208.226 196.951C209.013 197.245 209.668 197.814 210.071 198.552C210.474 199.289 210.598 200.148 210.42 200.969C210.242 201.791 209.774 202.521 209.102 203.026C208.43 203.532 207.598 203.778 206.76 203.72C205.921 203.663 205.131 203.305 204.534 202.713L199.424 205.5C199.526 205.981 199.526 206.477 199.424 206.958L204.534 209.745C205.131 209.153 205.921 208.795 206.76 208.738C207.598 208.68 208.43 208.927 209.102 209.432C209.774 209.937 210.242 210.667 210.42 211.489C210.598 212.31 210.474 213.169 210.071 213.907C209.668 214.645 209.013 215.213 208.226 215.508C207.439 215.802 206.571 215.804 205.783 215.512C204.995 215.22 204.338 214.653 203.933 213.917C203.527 213.18 203.401 212.322 203.576 211.5Z" fill="#770015"/>
<circle cx="62" cy="206.229" r="27" fill="white"/>
<path d="M54 200.643L50.757 197.401L52.172 195.986L55.414 199.229H70.656C70.8119 199.229 70.9656 199.266 71.1049 199.336C71.2442 199.406 71.3652 199.507 71.4583 199.632C71.5513 199.757 71.6139 199.902 71.6409 200.056C71.668 200.209 71.6588 200.367 71.614 200.516L69.214 208.516C69.1523 208.722 69.0257 208.903 68.8531 209.032C68.6806 209.16 68.4712 209.229 68.256 209.229H56V211.229H67V213.229H55C54.7348 213.229 54.4804 213.124 54.2929 212.936C54.1054 212.749 54 212.495 54 212.229V200.643ZM55.5 217.229C55.1022 217.229 54.7207 217.071 54.4394 216.79C54.1581 216.509 54 216.127 54 215.729C54 215.332 54.1581 214.95 54.4394 214.669C54.7207 214.387 55.1022 214.229 55.5 214.229C55.8978 214.229 56.2794 214.387 56.5607 214.669C56.842 214.95 57 215.332 57 215.729C57 216.127 56.842 216.509 56.5607 216.79C56.2794 217.071 55.8978 217.229 55.5 217.229ZM67.5 217.229C67.1022 217.229 66.7207 217.071 66.4394 216.79C66.1581 216.509 66 216.127 66 215.729C66 215.332 66.1581 214.95 66.4394 214.669C66.7207 214.387 67.1022 214.229 67.5 214.229C67.8978 214.229 68.2794 214.387 68.5607 214.669C68.842 214.95 69 215.332 69 215.729C69 216.127 68.842 216.509 68.5607 216.79C68.2794 217.071 67.8978 217.229 67.5 217.229Z" fill="#770015"/>
<defs>
<filter id="filter0_b_0_597" x="-10" y="-9.77075" width="284" height="432" filterUnits="userSpaceOnUse" color-interpolation-filters="sRGB">
<feFlood flood-opacity="0" result="BackgroundImageFix"/>
<feGaussianBlur in="BackgroundImageFix" stdDeviation="5"/>
<feComposite in2="SourceAlpha" operator="in" result="effect1_backgroundBlur_0_597"/>
<feBlend mode="normal" in="SourceGraphic" in2="effect1_backgroundBlur_0_597" result="shape"/>
</filter>
</defs>
</svg>
