<svg width="285" height="47" viewBox="0 0 285 47" fill="none" xmlns="http://www.w3.org/2000/svg">
<circle cx="23" cy="23.876" r="23" fill="#1077F0"/>
<path d="M25 25.376H27.5L28.5 21.376H25V19.376C25 18.346 25 17.376 27 17.376H28.5V14.016C28.174 13.973 26.943 13.876 25.643 13.876C22.928 13.876 21 15.533 21 18.576V21.376H18V25.376H21V33.876H25V25.376Z" fill="white"/>
<circle cx="82.75" cy="23.876" r="23" fill="#229AEF"/>
<path d="M92.912 17.5319C92.1486 17.8696 91.339 18.0914 90.51 18.1899C91.3837 17.6673 92.0377 16.8449 92.35 15.8759C91.53 16.3639 90.631 16.7059 89.694 16.8909C89.0646 16.2175 88.2304 15.7709 87.3209 15.6205C86.4115 15.4701 85.4779 15.6244 84.6653 16.0594C83.8526 16.4943 83.2064 17.1856 82.8271 18.0257C82.4478 18.8658 82.3567 19.8077 82.568 20.7049C80.9051 20.6216 79.2783 20.1894 77.7933 19.4366C76.3082 18.6837 74.9981 17.627 73.948 16.3349C73.5763 16.9734 73.3809 17.6991 73.382 18.4379C73.382 19.8879 74.12 21.1689 75.242 21.9189C74.578 21.898 73.9286 21.7187 73.348 21.3959V21.4479C73.3482 22.4136 73.6824 23.3495 74.2938 24.097C74.9053 24.8444 75.7565 25.3574 76.703 25.5489C76.0866 25.7159 75.4403 25.7406 74.813 25.6209C75.0799 26.4521 75.6 27.1791 76.3006 27.7C77.0012 28.2209 77.8471 28.5097 78.72 28.5259C77.8525 29.2072 76.8592 29.7109 75.7969 30.0081C74.7346 30.3053 73.6241 30.3902 72.529 30.2579C74.4407 31.4873 76.6661 32.14 78.939 32.1379C86.632 32.1379 90.839 25.7649 90.839 20.2379C90.839 20.0579 90.834 19.8759 90.826 19.6979C91.6449 19.1061 92.3516 18.3729 92.913 17.5329L92.912 17.5319Z" fill="white"/>
<circle cx="142.5" cy="23.876" r="23" fill="url(#paint0_linear_0_715)"/>
<path d="M142.5 13.876C145.217 13.876 145.556 13.886 146.622 13.936C147.687 13.986 148.412 14.153 149.05 14.401C149.71 14.655 150.266 14.999 150.822 15.554C151.33 16.0539 151.724 16.6586 151.975 17.326C152.222 17.963 152.39 18.689 152.44 19.754C152.487 20.82 152.5 21.159 152.5 23.876C152.5 26.593 152.49 26.932 152.44 27.998C152.39 29.063 152.222 29.788 151.975 30.426C151.725 31.0938 151.331 31.6986 150.822 32.198C150.322 32.7063 149.717 33.0997 149.05 33.351C148.413 33.598 147.687 33.766 146.622 33.816C145.556 33.863 145.217 33.876 142.5 33.876C139.783 33.876 139.444 33.866 138.378 33.816C137.313 33.766 136.588 33.598 135.95 33.351C135.282 33.1005 134.678 32.7069 134.178 32.198C133.669 31.6982 133.276 31.0934 133.025 30.426C132.777 29.789 132.61 29.063 132.56 27.998C132.513 26.932 132.5 26.593 132.5 23.876C132.5 21.159 132.51 20.82 132.56 19.754C132.61 18.688 132.777 17.964 133.025 17.326C133.275 16.6582 133.669 16.0533 134.178 15.554C134.678 15.0452 135.282 14.6517 135.95 14.401C136.588 14.153 137.312 13.986 138.378 13.936C139.444 13.889 139.783 13.876 142.5 13.876ZM142.5 18.876C141.174 18.876 139.902 19.4028 138.964 20.3404C138.027 21.2781 137.5 22.5499 137.5 23.876C137.5 25.2021 138.027 26.4738 138.964 27.4115C139.902 28.3492 141.174 28.876 142.5 28.876C143.826 28.876 145.098 28.3492 146.036 27.4115C146.973 26.4738 147.5 25.2021 147.5 23.876C147.5 22.5499 146.973 21.2781 146.036 20.3404C145.098 19.4028 143.826 18.876 142.5 18.876ZM149 18.626C149 18.2945 148.868 17.9765 148.634 17.7421C148.399 17.5077 148.082 17.376 147.75 17.376C147.418 17.376 147.101 17.5077 146.866 17.7421C146.632 17.9765 146.5 18.2945 146.5 18.626C146.5 18.9575 146.632 19.2754 146.866 19.5099C147.101 19.7443 147.418 19.876 147.75 19.876C148.082 19.876 148.399 19.7443 148.634 19.5099C148.868 19.2754 149 18.9575 149 18.626ZM142.5 20.876C143.296 20.876 144.059 21.192 144.621 21.7547C145.184 22.3173 145.5 23.0803 145.5 23.876C145.5 24.6716 145.184 25.4347 144.621 25.9973C144.059 26.5599 143.296 26.876 142.5 26.876C141.704 26.876 140.941 26.5599 140.379 25.9973C139.816 25.4347 139.5 24.6716 139.5 23.876C139.5 23.0803 139.816 22.3173 140.379 21.7547C140.941 21.192 141.704 20.876 142.5 20.876Z" fill="white"/>
<circle cx="202.25" cy="23.876" r="23" fill="#2B67B3"/>
<g clip-path="url(#clip0_0_715)">
<path d="M208.585 30.215H205.92V26.038C205.92 25.042 205.9 23.76 204.53 23.76C203.141 23.76 202.929 24.844 202.929 25.965V30.215H200.263V21.626H202.823V22.796H202.858C203.216 22.122 204.086 21.409 205.386 21.409C208.086 21.409 208.586 23.187 208.586 25.5V30.215H208.585ZM197.253 20.451C197.05 20.4512 196.848 20.4113 196.66 20.3336C196.472 20.2558 196.301 20.1417 196.157 19.9978C196.014 19.8539 195.9 19.683 195.822 19.495C195.744 19.3069 195.705 19.1054 195.705 18.902C195.705 18.5958 195.796 18.2966 195.966 18.0421C196.137 17.7877 196.379 17.5894 196.662 17.4724C196.944 17.3554 197.256 17.325 197.556 17.3849C197.856 17.4448 198.132 17.5925 198.348 17.8091C198.565 18.0257 198.712 18.3016 198.771 18.602C198.831 18.9023 198.8 19.2135 198.683 19.4963C198.565 19.7791 198.367 20.0207 198.112 20.1906C197.858 20.3606 197.559 20.4512 197.253 20.451ZM198.589 30.215H195.916V21.626H198.59V30.215H198.589ZM209.92 14.876H194.579C193.843 14.876 193.25 15.456 193.25 16.173V31.579C193.25 32.296 193.844 32.876 194.578 32.876H209.916C210.65 32.876 211.25 32.296 211.25 31.579V16.173C211.25 15.456 210.65 14.876 209.916 14.876H209.92Z" fill="white"/>
</g>
<circle cx="262" cy="23.876" r="23" fill="#E60022"/>
<g clip-path="url(#clip1_0_715)">
<path d="M263.37 13.9703C260.977 13.6412 258.546 14.1888 256.526 15.5123C254.505 16.8357 253.032 18.8454 252.378 21.1704C251.724 23.4953 251.933 25.9785 252.966 28.1614C254 30.3442 255.789 32.0793 258.002 33.0463C257.942 32.2781 257.997 31.5053 258.165 30.7533C258.35 29.9143 259.461 25.2903 259.461 25.2903C259.24 24.7944 259.129 24.2563 259.137 23.7133C259.137 22.2283 259.994 21.1203 261.06 21.1203C261.252 21.1175 261.441 21.156 261.617 21.2331C261.792 21.3103 261.949 21.4242 262.076 21.5673C262.203 21.7104 262.298 21.8792 262.355 22.0623C262.411 22.2454 262.427 22.4384 262.402 22.6283C262.402 23.5283 261.824 24.8903 261.522 26.1683C261.462 26.4027 261.459 26.6478 261.511 26.8839C261.563 27.12 261.671 27.3405 261.824 27.5276C261.977 27.7147 262.172 27.8632 262.393 27.9611C262.614 28.0591 262.855 28.1036 263.097 28.0913C264.995 28.0913 266.267 25.6603 266.267 22.7903C266.267 20.5903 264.81 18.9423 262.124 18.9423C261.481 18.9173 260.84 19.0232 260.24 19.2536C259.639 19.4839 259.092 19.8338 258.631 20.2822C258.17 20.7305 257.805 21.2679 257.558 21.8617C257.311 22.4554 257.187 23.0932 257.194 23.7363C257.165 24.4496 257.396 25.1493 257.842 25.7063C257.925 25.7686 257.986 25.8563 258.016 25.9562C258.045 26.0562 258.041 26.1629 258.004 26.2603C257.958 26.4443 257.842 26.8833 257.796 27.0443C257.786 27.0989 257.764 27.1505 257.731 27.1949C257.698 27.2393 257.655 27.2754 257.605 27.3001C257.556 27.3248 257.501 27.3375 257.445 27.3372C257.39 27.3369 257.335 27.3236 257.286 27.2983C255.902 26.7443 255.25 25.2213 255.25 23.4823C255.25 20.6353 257.634 17.2273 262.404 17.2273C266.2 17.2273 268.724 20.0043 268.724 22.9743C268.724 26.8833 266.547 29.8223 263.33 29.8223C262.849 29.8377 262.372 29.7316 261.943 29.5138C261.514 29.296 261.147 28.9736 260.876 28.5763C260.876 28.5763 260.298 30.8923 260.184 31.3303C259.951 32.087 259.608 32.8051 259.165 33.4613C260.088 33.7413 261.047 33.8813 262.011 33.8773C263.325 33.8783 264.625 33.6203 265.839 33.1179C267.053 32.6155 268.156 31.8786 269.084 30.9494C270.013 30.0202 270.749 28.9171 271.25 27.703C271.752 26.4889 272.009 25.1879 272.007 23.8743C272.006 21.4593 271.131 19.1263 269.544 17.3061C267.956 15.4859 265.764 14.3014 263.372 13.9713L263.37 13.9703Z" fill="white"/>
</g>
<defs>
<linearGradient id="paint0_linear_0_715" x1="125.891" y1="46.876" x2="162.368" y2="0.875976" gradientUnits="userSpaceOnUse">
<stop stop-color="#FFDB70"/>
<stop offset="0.471476" stop-color="#F3278E"/>
<stop offset="1" stop-color="#5351D7"/>
</linearGradient>
<clipPath id="clip0_0_715">
<rect width="24" height="24" fill="white" transform="translate(190.25 11.876)"/>
</clipPath>
<clipPath id="clip1_0_715">
<rect width="24" height="24" fill="white" transform="translate(250 11.876)"/>
</clipPath>
</defs>
</svg>
