<svg width="1120" height="313" viewBox="0 0 1120 313" fill="none" xmlns="http://www.w3.org/2000/svg">
<mask id="mask0_0_675" style="mask-type:alpha" maskUnits="userSpaceOnUse" x="0" y="0" width="1120" height="313">
<rect y="0.364258" width="1120" height="312" fill="url(#paint0_linear_0_675)"/>
</mask>
<g mask="url(#mask0_0_675)">
<path d="M-18.9205 -6.97227C34.4359 -18.6314 96.4688 -1.86827 138.625 36.6057C181.118 74.9855 203.519 134.955 193.477 184.038C183.22 233 140.183 271.17 93.189 304.277C46.2894 337.721 -4.56697 366.102 -47.6727 356.021C-90.5631 346.061 -125.703 297.64 -143.421 245.979C-161.26 194.532 -162.108 139.603 -139.977 92.2195C-117.63 44.9567 -72.4923 4.56569 -18.9205 -6.97227Z" fill="white" fill-opacity="0.16"/>
<path d="M1252.45 52.7092C1285.65 89.9696 1300.1 146.876 1288.36 197.686C1276.84 248.721 1239.13 293.434 1195.54 307.435C1151.96 321.21 1102.28 304.047 1054.86 281.465C1007.21 259.109 961.82 231.333 950.529 192.492C939.238 153.877 962.046 104.196 995.242 66.9359C1028.21 29.6755 1071.57 4.38359 1119.22 0.77046C1166.87 -2.61685 1219.26 15.223 1252.45 52.7092Z" fill="white" fill-opacity="0.16"/>
</g>
<defs>
<linearGradient id="paint0_linear_0_675" x1="-63.0853" y1="-33.627" x2="1097.97" y2="500.255" gradientUnits="userSpaceOnUse">
<stop stop-color="#AB001E"/>
<stop offset="1" stop-color="#770015"/>
</linearGradient>
</defs>
</svg>
